<svg width="533" height="310" viewBox="0 0 533 310" fill="none" xmlns="http://www.w3.org/2000/svg">
<path d="M155.2 42.4C128.609 98.4029 95.0882 150.397 63.5556 203.644C46.313 232.761 29.6876 262.137 13.7778 292C12.3275 294.722 0.466743 318.237 2.17779 302.267C11.9295 211.25 67.1524 131.018 138.489 76C166.54 54.3662 197.38 32.2936 230.844 19.8222C242.355 15.5325 249.362 16.6394 245.467 30.4889C237.611 58.4196 221.783 82.9734 203.689 105.289C177.132 138.042 147.244 167.321 115.378 194.844C101.839 206.538 87.8303 217.57 73.7778 228.622C65.3965 235.214 79.2587 227.185 80.8445 226.222C93.6638 218.439 106.08 209.892 119.333 202.844C123.897 200.418 136.869 191.119 142.578 194.844C150.936 200.299 153.587 214.917 156.444 223.467C160.178 234.637 162.585 251.304 174.978 256.178C186.86 260.85 199.67 253.704 209.911 248C219.798 242.493 227.922 234.854 237.333 228.711C240.229 226.821 244.432 223.242 247.289 226.711C251.283 231.561 252.28 237.411 258.667 240.089C271.546 245.49 284.987 234.665 294.489 227.289C321.385 206.41 340.243 177.995 359.422 150.311C376.611 125.501 391.665 100.043 404.178 72.5334C408.904 62.1433 413.263 51.5714 417.511 40.9778C421.311 31.502 426.147 21.2508 426.489 10.8445C426.896 -1.54805 415.055 0.7628 406.756 4.53337C372.053 20.2997 352.476 58.9781 333.067 89.5111C311.408 123.583 292.695 158.875 274.4 194.844C267.683 208.05 261.001 221.271 254.133 234.4C249.56 243.143 241.461 254.054 240.267 264.178C238.842 276.252 272.595 267.522 276.711 266.578C314.383 257.942 351.326 242.257 387.244 228.267C435.972 209.287 483.789 188.412 531.2 166.4" stroke="white" stroke-width="3" stroke-linecap="round"/>
</svg>
